<svg xmlns="http://www.w3.org/2000/svg" width="34" height="34" viewBox="0 0 34 34">
    <g fill="#969DBA" fill-rule="nonzero">
        <path d="M11.94 26.656l-5.072 2.767a4.558 4.558 0 0 0-.814.58A16.921 16.921 0 0 0 17 34c4.14 0 7.934-1.482 10.883-3.941a4.5 4.5 0 0 0-.895-.6l-5.431-2.715a2.071 2.071 0 0 1-1.145-1.853v-2.13c.152-.175.327-.398.513-.662.74-1.045 1.3-2.196 1.689-3.402a1.706 1.706 0 0 0 1.21-1.623v-2.275c0-.5-.223-.948-.569-1.26V10.25s.676-5.117-6.254-5.117-6.255 5.117-6.255 5.117v3.288c-.346.313-.568.76-.568 1.261v2.275c0 .599.315 1.126.786 1.431.568 2.474 2.057 4.255 2.057 4.255v2.079c0 .757-.415 1.454-1.08 1.817z"/>
        <path fill-opacity=".4" d="M17.29.003C7.904-.157.164 7.323.004 16.709c-.092 5.323 2.28 10.107 6.058 13.288.247-.216.512-.413.806-.574l5.073-2.766a2.072 2.072 0 0 0 1.08-1.819v-2.079s-1.49-1.78-2.057-4.255a1.706 1.706 0 0 1-.787-1.43v-2.276c0-.5.223-.947.569-1.26v-3.289s-.676-5.117 6.254-5.117 6.255 5.117 6.255 5.117v3.289c.346.313.568.76.568 1.26v2.275c0 .765-.513 1.408-1.21 1.623a12.498 12.498 0 0 1-1.688 3.403 8.204 8.204 0 0 1-.514.66v2.132a2.07 2.07 0 0 0 1.145 1.852l5.432 2.716c.326.163.62.369.892.598 3.663-3.055 6.03-7.623 6.117-12.766C34.158 7.903 26.678.163 17.291.003z"/>
    </g>
</svg>
