<svg xmlns="http://www.w3.org/2000/svg" width="34" height="34" viewBox="0 0 34 34">
    <g fill="none" fill-rule="evenodd">
        <circle cx="17" cy="17" r="17" fill="#E7ECED"/>
        <g fill-rule="nonzero">
            <g transform="translate(5 5)">
                <path fill="#004A94" d="M12.07.176c-3.038 0-5.045 1.22-5.045 2.386v3.715h5.045v.555H2.613c-1.204 0-2.465 1.941-2.465 4.881 0 2.94 1.261 4.882 2.465 4.882H6.45v-2.322c0-1.565 1.316-2.838 2.933-2.838h5.37c1.301 0 2.36-1.025 2.36-2.284V2.562c0-1.165-2.006-2.386-5.044-2.386z"/>
                <ellipse cx="9.336" cy="3.466" fill="#FFF" rx="1" ry="1"/>
            </g>
            <g transform="translate(12 11.774)">
                <path fill="#FB9200" d="M14.526.058h-3.84v2.319c0 1.565-1.315 2.838-2.932 2.838h-5.37c-1.3 0-2.36 1.025-2.36 2.284v2.561h.001v4.03c0 1.166 2.006 2.386 5.045 2.386 3.038 0 5.044-1.22 5.044-2.385v-3.715H5.07V9.82h9.456c1.204 0 2.465-1.942 2.465-4.882 0-2.94-1.26-4.881-2.465-4.881z"/>
                <ellipse cx="7.803" cy="13.186" fill="#FFF" rx="1" ry="1"/>
            </g>
        </g>
    </g>
</svg>
