<svg xmlns="http://www.w3.org/2000/svg" width="169" height="30" viewBox="0 0 169 30">
    <g fill="#FFF" fill-rule="evenodd">
        <g stroke="#FFF" stroke-width=".4">
            <path d="M51.305 10.315a4.564 4.564 0 0 1-1.822-1.821c-.442-.792-.662-1.717-.662-2.776 0-1.059.22-1.984.662-2.776a4.564 4.564 0 0 1 1.822-1.821c.772-.423 1.644-.634 2.615-.634.66 0 1.25.078 1.77.233.52.156 1.037.38 1.552.67.214.117.32.302.32.554a.558.558 0 0 1-.583.554.578.578 0 0 1-.261-.058 6.667 6.667 0 0 0-1.253-.51 5.16 5.16 0 0 0-1.414-.175c-.835 0-1.547.172-2.134.517a3.321 3.321 0 0 0-1.326 1.413c-.296.598-.445 1.275-.445 2.033s.149 1.435.445 2.033a3.321 3.321 0 0 0 1.326 1.413c.587.345 1.299.517 2.134.517a5.16 5.16 0 0 0 1.414-.175 6.667 6.667 0 0 0 1.253-.51.578.578 0 0 1 .262-.058c.175 0 .316.053.422.16.107.107.16.238.16.394a.586.586 0 0 1-.32.553 7.533 7.533 0 0 1-1.552.67c-.52.156-1.11.234-1.77.234-.971 0-1.843-.212-2.615-.634zm11.075-.037a4.591 4.591 0 0 1-1.777-1.85c-.418-.787-.637-1.69-.656-2.71.02-1.02.238-1.923.656-2.71a4.591 4.591 0 0 1 1.777-1.85c.768-.447 1.661-.67 2.681-.67s1.911.223 2.674.67a4.643 4.643 0 0 1 1.777 1.857c.423.792.644 1.693.663 2.703-.02 1.01-.24 1.911-.663 2.703a4.643 4.643 0 0 1-1.777 1.857c-.763.447-1.654.67-2.674.67s-1.913-.223-2.68-.67zm4.706-1.092a3.445 3.445 0 0 0 1.312-1.428c.3-.602.451-1.282.451-2.04s-.15-1.438-.451-2.04a3.445 3.445 0 0 0-1.312-1.428c-.573-.35-1.248-.524-2.025-.524-.787 0-1.464.175-2.032.524a3.46 3.46 0 0 0-1.304 1.428c-.302.602-.452 1.282-.452 2.04s.15 1.438.452 2.04a3.46 3.46 0 0 0 1.304 1.428c.568.35 1.245.524 2.032.524.777 0 1.452-.175 2.025-.524zm8.417 1.326a3.763 3.763 0 0 1-1.574-1.334c-.408-.597-.612-1.328-.612-2.192V1.23c0-.184.063-.342.19-.473a.622.622 0 0 1 .466-.197c.184 0 .342.066.473.197a.646.646 0 0 1 .197.473v5.8c0 .582.134 1.077.4 1.485.268.408.62.714 1.057.918.437.204.903.306 1.399.306.495 0 .962-.102 1.399-.306.437-.204.789-.51 1.056-.918.267-.408.4-.903.4-1.486V1.23c0-.184.064-.342.19-.473A.622.622 0 0 1 81.01.56c.185 0 .343.066.474.197a.646.646 0 0 1 .197.473v5.756c0 .864-.204 1.595-.612 2.192a3.763 3.763 0 0 1-1.574 1.334 4.773 4.773 0 0 1-3.992 0zm10.12.174a.634.634 0 0 1-.189-.466V1.303c0-.184.064-.342.19-.473a.622.622 0 0 1 .466-.197h3.395c1.321 0 2.312.272 2.972.816.66.544.991 1.258.991 2.142 0 .582-.163 1.114-.488 1.595-.325.481-.799.828-1.42 1.042.699.184 1.177.62 1.435 1.304a5.71 5.71 0 0 1 .386 2.018v.67c0 .185-.063.34-.19.466a.634.634 0 0 1-.466.19.66.66 0 0 1-.488-.182.64.64 0 0 1-.182-.474v-.437c0-.486-.044-.935-.131-1.348a2.167 2.167 0 0 0-.627-1.107c-.33-.325-.83-.488-1.5-.488H86.76v3.38c0 .185-.065.34-.196.466a.658.658 0 0 1-.474.19.634.634 0 0 1-.466-.19zm3.775-5.1c.835 0 1.498-.164 1.988-.495.49-.33.736-.796.736-1.398 0-.583-.211-1.03-.634-1.34-.422-.312-1.143-.467-2.163-.467H86.76v3.7h2.638zm18.726 5.028a.634.634 0 0 1-.19-.467V1.303c0-.184.064-.342.19-.473a.622.622 0 0 1 .467-.197h5.842c.175 0 .323.06.445.182.121.121.182.27.182.444a.58.58 0 0 1-.182.438.618.618 0 0 1-.445.174h-5.172v3.22h4.648c.175 0 .323.061.444.183.122.121.182.27.182.444a.58.58 0 0 1-.182.437.618.618 0 0 1-.444.175h-4.648v3.235h5.172c.175 0 .323.06.445.182.121.121.182.27.182.444a.58.58 0 0 1-.182.437.618.618 0 0 1-.445.175h-5.842a.634.634 0 0 1-.467-.19zm9.845-.365a.661.661 0 0 1-.292-.24.614.614 0 0 1-.116-.357c0-.165.055-.308.167-.43a.558.558 0 0 1 .43-.182c.097 0 .19.02.277.058a6.97 6.97 0 0 0 2.87.598c1.7 0 2.55-.559 2.55-1.676a.934.934 0 0 0-.328-.728 2.379 2.379 0 0 0-.808-.46c-.321-.111-.778-.245-1.37-.4-.787-.204-1.423-.4-1.909-.59a3.328 3.328 0 0 1-1.253-.853c-.35-.378-.524-.884-.524-1.515 0-.554.145-1.056.437-1.508.291-.452.72-.811 1.29-1.078.567-.267 1.25-.4 2.046-.4 1.069 0 2.035.16 2.9.48.272.097.408.291.408.583a.638.638 0 0 1-.16.422.526.526 0 0 1-.423.19.672.672 0 0 1-.233-.059 7.122 7.122 0 0 0-2.346-.393c-.767 0-1.391.146-1.872.437-.481.292-.721.7-.721 1.224 0 .35.114.634.342.852.228.219.515.389.86.51.344.122.813.25 1.406.387.767.184 1.386.369 1.857.553a3.04 3.04 0 0 1 1.21.86c.335.388.502.913.502 1.573 0 .544-.155 1.033-.466 1.465-.31.432-.748.77-1.311 1.012-.564.243-1.214.365-1.953.365a8.642 8.642 0 0 1-3.467-.7zm-21 0a.661.661 0 0 1-.292-.24.614.614 0 0 1-.116-.357c0-.165.055-.308.167-.43a.558.558 0 0 1 .43-.182c.097 0 .19.02.277.058a6.97 6.97 0 0 0 2.87.598c1.7 0 2.55-.559 2.55-1.676a.934.934 0 0 0-.328-.728 2.379 2.379 0 0 0-.808-.46c-.321-.111-.778-.245-1.37-.4-.787-.204-1.423-.4-1.909-.59a3.328 3.328 0 0 1-1.253-.853c-.35-.378-.524-.884-.524-1.515 0-.554.145-1.056.437-1.508.291-.452.72-.811 1.29-1.078.567-.267 1.25-.4 2.046-.4 1.069 0 2.035.16 2.9.48.272.097.408.291.408.583a.638.638 0 0 1-.16.422.526.526 0 0 1-.423.19.672.672 0 0 1-.233-.059 7.122 7.122 0 0 0-2.346-.393c-.767 0-1.391.146-1.872.437-.481.292-.721.7-.721 1.224 0 .35.114.634.342.852.228.219.515.389.86.51.344.122.813.25 1.406.387.767.184 1.386.369 1.857.553a3.04 3.04 0 0 1 1.21.86c.335.388.502.913.502 1.573 0 .544-.155 1.033-.466 1.465-.31.432-.748.77-1.311 1.012-.564.243-1.214.365-1.953.365a8.642 8.642 0 0 1-3.467-.7zM49.01 28.994a.634.634 0 0 1-.19-.466v-8.699c0-.262.093-.488.277-.677a.901.901 0 0 1 .67-.284h.481c.195 0 .372.058.532.175.16.116.28.262.357.437l3.308 8.247 3.307-8.247c.078-.175.197-.32.357-.437a.884.884 0 0 1 .532-.175h.48c.263 0 .486.094.671.284.185.19.277.415.277.677v8.699c0 .184-.063.34-.19.466a.634.634 0 0 1-.466.19.658.658 0 0 1-.473-.19.622.622 0 0 1-.197-.466v-8.276l-3.366 8.32a.974.974 0 0 1-.371.444 1 1 0 0 1-.561.168 1 1 0 0 1-.561-.168.974.974 0 0 1-.372-.444l-3.366-8.32v8.276c0 .184-.065.34-.196.466a.658.658 0 0 1-.474.19.634.634 0 0 1-.466-.19zm14.383 0a.647.647 0 0 1-.182-.466c0-.078.024-.175.073-.292l3.715-8.77c.078-.176.187-.319.328-.43a.806.806 0 0 1 .517-.168h.146c.204 0 .376.056.517.167.14.112.25.255.328.43l3.715 8.771a.793.793 0 0 1 .073.292c0 .184-.06.34-.182.466a.627.627 0 0 1-.473.19.666.666 0 0 1-.372-.11.697.697 0 0 1-.255-.298l-.947-2.273H65.44l-.947 2.273a.697.697 0 0 1-.255.298.666.666 0 0 1-.372.11.627.627 0 0 1-.473-.19zm2.557-3.7h3.934l-1.967-4.736-1.967 4.735zm10.004 3.7a.634.634 0 0 1-.189-.466v-8.699c0-.262.092-.488.277-.677a.901.901 0 0 1 .67-.284h.19c.31 0 .577.145.8.437l5.61 8.101v-7.868c0-.185.064-.342.19-.474a.622.622 0 0 1 .466-.196c.185 0 .343.065.474.196a.646.646 0 0 1 .196.474v8.698a.901.901 0 0 1-.284.67.937.937 0 0 1-.677.278h-.175a.912.912 0 0 1-.437-.11 1.006 1.006 0 0 1-.335-.284l-5.64-8.145v7.883c0 .184-.065.34-.196.466a.658.658 0 0 1-.473.19.634.634 0 0 1-.467-.19zm12.008 0a.647.647 0 0 1-.182-.466c0-.078.025-.175.073-.292l3.716-8.77c.077-.176.187-.319.327-.43a.806.806 0 0 1 .518-.168h.145c.204 0 .377.056.518.167.14.112.25.255.327.43l3.716 8.771a.793.793 0 0 1 .073.292c0 .184-.061.34-.182.466a.627.627 0 0 1-.474.19.666.666 0 0 1-.372-.11.697.697 0 0 1-.254-.298l-.948-2.273H90.01l-.947 2.273a.697.697 0 0 1-.255.298.666.666 0 0 1-.371.11.627.627 0 0 1-.474-.19zm2.557-3.7h3.934l-1.967-4.736-1.967 4.735zm11.651 3.3a4.601 4.601 0 0 1-1.806-1.851c-.428-.792-.641-1.693-.641-2.703 0-1.03.223-1.943.67-2.739a4.75 4.75 0 0 1 1.828-1.85c.773-.438 1.63-.656 2.572-.656.758 0 1.42.092 1.989.277a7.302 7.302 0 0 1 1.64.772.513.513 0 0 1 .203.204.611.611 0 0 1 .088.32.587.587 0 0 1-.612.597.676.676 0 0 1-.306-.072 6.06 6.06 0 0 0-1.37-.612 5.186 5.186 0 0 0-1.486-.204c-.738 0-1.404.155-1.996.466a3.357 3.357 0 0 0-1.392 1.363c-.335.597-.503 1.309-.503 2.134 0 .758.158 1.435.474 2.033a3.486 3.486 0 0 0 1.37 1.413c.597.345 1.304.517 2.12.517.913 0 1.763-.213 2.55-.64v-2.638h-2.405a.576.576 0 0 1-.422-.175.576.576 0 0 1-.175-.422c0-.165.058-.306.175-.423a.576.576 0 0 1 .422-.175h2.87c.195 0 .36.068.496.204a.674.674 0 0 1 .204.496v3.307a.996.996 0 0 1-.153.546.945.945 0 0 1-.4.357c-1.089.544-2.2.816-3.337.816-1 0-1.89-.22-2.667-.663zm10.384.327a.634.634 0 0 1-.19-.466v-8.844c0-.185.063-.343.19-.474a.622.622 0 0 1 .466-.196h5.843c.175 0 .323.06.444.182.122.121.182.27.182.444a.58.58 0 0 1-.182.437.618.618 0 0 1-.444.175h-5.173v3.22h4.648c.175 0 .323.06.445.182.121.122.182.27.182.445a.58.58 0 0 1-.182.437.618.618 0 0 1-.445.175h-4.648v3.234h5.173c.175 0 .323.06.444.182.122.122.182.27.182.445a.58.58 0 0 1-.182.437.618.618 0 0 1-.444.175h-5.843a.634.634 0 0 1-.466-.19zm10.296.073a.634.634 0 0 1-.19-.466v-8.699c0-.262.093-.488.277-.677a.901.901 0 0 1 .67-.284h.481c.194 0 .372.058.532.175.16.116.28.262.357.437l3.307 8.247 3.308-8.247c.078-.175.197-.32.357-.437a.884.884 0 0 1 .532-.175h.48c.263 0 .486.094.67.284.185.19.278.415.278.677v8.699c0 .184-.064.34-.19.466a.634.634 0 0 1-.466.19.658.658 0 0 1-.474-.19.622.622 0 0 1-.196-.466v-8.276l-3.366 8.32a.974.974 0 0 1-.372.444 1 1 0 0 1-.56.168 1 1 0 0 1-.562-.168.974.974 0 0 1-.371-.444l-3.366-8.32v8.276c0 .184-.065.34-.197.466a.658.658 0 0 1-.473.19.634.634 0 0 1-.466-.19zm15.075-.073a.634.634 0 0 1-.19-.466v-8.844c0-.185.063-.343.19-.474a.622.622 0 0 1 .466-.196h5.843c.174 0 .323.06.444.182.121.121.182.27.182.444a.58.58 0 0 1-.182.437.618.618 0 0 1-.444.175h-5.173v3.22h4.648c.175 0 .323.06.444.182.122.122.183.27.183.445a.58.58 0 0 1-.183.437.618.618 0 0 1-.444.175h-4.648v3.234h5.173c.174 0 .323.06.444.182s.182.27.182.445a.58.58 0 0 1-.182.437.618.618 0 0 1-.444.175h-5.843a.634.634 0 0 1-.466-.19zm10.296.073a.634.634 0 0 1-.19-.466v-8.699c0-.262.092-.488.277-.677a.901.901 0 0 1 .67-.284h.19c.31 0 .578.145.801.437l5.61 8.101v-7.868c0-.185.063-.342.189-.474a.622.622 0 0 1 .466-.196c.185 0 .343.065.474.196a.646.646 0 0 1 .197.474v8.698a.901.901 0 0 1-.285.67.937.937 0 0 1-.677.278h-.175a.912.912 0 0 1-.437-.11 1.006 1.006 0 0 1-.335-.284l-5.639-8.145v7.883c0 .184-.066.34-.197.466a.658.658 0 0 1-.473.19.634.634 0 0 1-.466-.19zm15.06 0a.634.634 0 0 1-.19-.466v-8.349h-2.972a.593.593 0 0 1-.437-.175.593.593 0 0 1-.175-.437c0-.175.059-.323.175-.444a.58.58 0 0 1 .437-.182h7.256c.175 0 .323.06.445.182.121.121.182.27.182.444a.58.58 0 0 1-.182.437.618.618 0 0 1-.445.175h-2.958v8.349c0 .184-.065.34-.196.466a.658.658 0 0 1-.474.19.634.634 0 0 1-.466-.19z"/>
        </g>
        <path fill-rule="nonzero" d="M30 27.745c0 .416-.34.755-.753.755H2.253a.752.752 0 0 1-.753-.755V7.5H30v20.245zM2.253 1.5h26.994c.415 0 .75.334.752.75l.001.005V6H1.5V2.255 2.25a.756.756 0 0 1 .753-.75zm29.246.75A2.252 2.252 0 0 0 29.247 0H2.253A2.22 2.22 0 0 0 1.5.139 2.25 2.25 0 0 0 0 2.25v25.495A2.253 2.253 0 0 0 2.253 30h26.994c1.24 0 2.253-1.01 2.253-2.255V2.255 2.25zM3.75 4.5A.75.75 0 1 0 3.751 3 .75.75 0 0 0 3.75 4.5zM6 4.5A.75.75 0 1 0 6.001 3 .75.75 0 0 0 6 4.5zm2.25 0A.75.75 0 1 0 8.251 3 .75.75 0 0 0 8.25 4.5zm14.03 8.47c-.033-.033-.074-.048-.11-.074a.74.74 0 0 0-.95.074.75.75 0 0 0 0 1.06l.95.95 2.227 2.228-2.227 2.229-.95.95a.75.75 0 0 0 0 1.06.74.74 0 0 0 .95.073c.036-.024.077-.04.11-.072l3.709-3.71a.75.75 0 0 0 0-1.06L22.28 12.97zm-4.337-2.419a.737.737 0 0 0-.693.094.73.73 0 0 0-.28.331l-.106.274-2.53 6.467-2.282 5.832a.75.75 0 0 0 1.397.547l.884-2.263 2.917-7.454 1.117-2.856a.741.741 0 0 0 .048-.273c0-.3-.176-.583-.472-.699zm-7.58 3.48a.75.75 0 1 0-1.06-1.061L8.25 14.023l-2.655 2.655a.75.75 0 0 0 0 1.06l2.655 2.656 1.053 1.054a.75.75 0 0 0 1.06-1.06L8.25 18.272l-1.065-1.065 1.065-1.064 2.114-2.114z"/>
    </g>
</svg>
